<!DOCTYPE svg PUBLIC "-//W3C//DTD SVG 1.1//EN" "http://www.w3.org/Graphics/SVG/1.1/DTD/svg11.dtd">

<!-- Uploaded to: SVG Repo, www.svgrepo.com, Transformed by: SVG Repo Mixer Tools -->
<svg width="800px" height="800px" viewBox="0 0 24 24"
	xmlns="http://www.w3.org/2000/svg" fill="#fff" stroke="#fff">
	<g id="SVGRepo_bgCarrier" stroke-width="0"/>
	<g id="SVGRepo_tracerCarrier" stroke-linecap="round" stroke-linejoin="round"/>
	<g id="SVGRepo_iconCarrier">
		<g>
			<path fill="none" d="M0 0h24v24H0z"/>
			<path d="M4 18h2v2h12V4H6v2H4V3a1 1 0 0 1 1-1h14a1 1 0 0 1 1 1v18a1 1 0 0 1-1 1H5a1 1 0 0 1-1-1v-3zm2-7h7v2H6v3l-5-4 5-4v3z"/>
		</g>
	</g>
</svg>